<svg width="48" height="48" viewBox="0 0 48 48" fill="none" xmlns="http://www.w3.org/2000/svg">
  <circle cx="24" cy="24" r="24" fill="#F59E0B"/>
  <path d="M16 32V16H24.5C26.5 16 28 16.5 29 17.5C30 18.5 30.5 19.8333 30.5 21.5C30.5 22.5 30.25 23.3333 29.75 24C29.25 24.6667 28.5833 25.1667 27.75 25.5C28.75 25.8333 29.5 26.3333 30 27C30.5 27.6667 30.75 28.5 30.75 29.5C30.75 31.1667 30.1667 32.5 29 33.5C27.8333 34.5 26.1667 35 24 35H16V32ZM20 24H23.5C24.3333 24 25 23.8333 25.5 23.5C26 23.1667 26.25 22.6667 26.25 22C26.25 21.3333 26 20.8333 25.5 20.5C25 20.1667 24.3333 20 23.5 20H20V24ZM20 31H24C24.8333 31 25.5 30.8333 26 30.5C26.5 30.1667 26.75 29.6667 26.75 29C26.75 28.3333 26.5 27.8333 26 27.5C25.5 27.1667 24.8333 27 24 27H20V31Z" fill="white"/>
</svg>